<?xml version="1.0" encoding="utf-8"?>
<!-- Generator: Adobe Illustrator 17.1.0, SVG Export Plug-In . SVG Version: 6.00 Build 0)  -->
<!DOCTYPE svg PUBLIC "-//W3C//DTD SVG 1.0//EN" "http://www.w3.org/TR/2001/REC-SVG-20010904/DTD/svg10.dtd">
<svg version="1.0" xmlns="http://www.w3.org/2000/svg" xmlns:xlink="http://www.w3.org/1999/xlink" x="0px" y="0px"
	 viewBox="0 0 95 59" style="enable-background:new 0 0 95 59;" xml:space="preserve">
<symbol  id="Arrow_28" viewBox="-22.9 -15.9 45.7 31.8">
	<polygon style="fill:none;" points="-22.9,-15.9 22.9,-15.9 22.9,15.9 -22.9,15.9 	"/>
	<g>
		<polygon style="fill:#231F20;" points="-22.9,4.8 4.6,4.8 -6.5,15.9 7,15.9 22.9,0 7,-15.9 -6.5,-15.9 4.6,-4.8 -22.9,-4.8 		"/>
	</g>
</symbol>
<g id="Layer_2">
	<path style="fill:none;" d="M0,0v59h22.6c7.5-0.3,15.1-0.5,22.6-0.2c0.4,0,0.8,0.1,1.1,0.2H95V0H0z"/>
</g>
<g id="Layer_1">
	
		<use xlink:href="#Arrow_28"  width="45.7" height="31.8" id="XMLID_1_" x="-22.9" y="-15.9" transform="matrix(1.531 0 0 -1.8188 37.9996 29.8751)" style="display:none;overflow:visible;"/>
	<line style="fill:#FFFFFF;stroke:#f9d6d6;stroke-width:15;stroke-miterlimit:10;" x1="82" y1="0" x2="82" y2="59"/>
	<line style="fill:#FFFFFF;stroke:#f9d6d6;stroke-width:15;stroke-miterlimit:10;" x1="3" y1="30" x2="62" y2="30"/>
	<line style="fill:#FFFFFF;stroke:#f9d6d6;stroke-width:15;stroke-miterlimit:10;" x1="26.8" y1="-11.8" x2="68" y2="36"/>
	<path style="fill:#FFFFFF;stroke:#f9d6d6;stroke-width:15;stroke-miterlimit:10;" d="M66.5,26.4C55,39.3,43.6,52.1,32.2,65"/>
</g>
</svg>
