<?xml version="1.0" encoding="utf-8"?>
<!-- Generator: Adobe Illustrator 17.1.0, SVG Export Plug-In . SVG Version: 6.00 Build 0)  -->
<!DOCTYPE svg PUBLIC "-//W3C//DTD SVG 1.0//EN" "http://www.w3.org/TR/2001/REC-SVG-20010904/DTD/svg10.dtd">
<svg version="1.0" xmlns="http://www.w3.org/2000/svg" xmlns:xlink="http://www.w3.org/1999/xlink" x="0px" y="0px"
	 viewBox="0 0 501 744" style="enable-background:new 0 0 501 744;" xml:space="preserve">
<g id="rectangle_back">
	<rect x="0.5" y="0.5" style="fill:#FFFFFF;stroke:#231F20;stroke-miterlimit:10;" width="500" height="743"/>
</g>
<g id="Charges">
	<g id="footer">
		<rect x="20.5" y="688" style="fill:#FFFFFF;stroke:#231F20;stroke-miterlimit:10;" width="460" height="41"/>
		<rect x="32.5" y="695" style="fill:none;" width="442" height="32"/>
		<text transform="matrix(0.95 0 0 1 32.5 705.0234)"><tspan x="0" y="0" style="fill:#6D6E71; font-family:'ArialMT', sans-serif; font-size:13;">The Debt Retirement Charge was removed for certain residential consumption after</tspan><tspan x="0" y="16.8" style="fill:#6D6E71; font-family:'ArialMT', sans-serif; font-size:13;">  Dec. 31, 2015. Learn more at Ontario.ca/DRC. </tspan></text>
	</g>
	<g id="Total_amount">
		<rect x="0.5" y="621" style="fill:#D1D3D4;" width="500" height="39"/>
		<rect x="22.5" y="630" style="fill:none;" width="456" height="26"/>
		<text transform="matrix(0.95 0 0 1 22.5 648.6157)"><tspan x="0" y="0" style="fill:#58595B; font-family:'Arial-BoldMT',sans-serif; font-size:26;">Total Amount </tspan><tspan x="178.1" y="0" style="fill:#58595B; font-family:'Arial-BoldMT', sans-serif; font-size:26; letter-spacing:3.2;">	</tspan><tspan x="189.5" y="0" style="fill:#58595B; font-family:'Arial-BoldMT', sans-serif; font-size:26; letter-spacing:30.5;">					</tspan><tspan x="372" y="0" style="fill:#58595B; font-family:'Arial-BoldMT', sans-serif; font-size:26;">   $X.XX</tspan></text>
	</g>
	<rect x="22" y="587" style="fill:none;" width="456.5" height="24"/>
	<text transform="matrix(0.95 0 0 1 22 597.0234)"><tspan x="0" y="0" style="fill:#6D6E71; font-family:'ArialMT', sans-serif; font-size:14;">H.S.T</tspan><tspan x="36.5" y="0" style="fill:#6D6E71; font-family:'ArialMT', sans-serif; font-size:14; letter-spacing:-2.1;">	</tspan><tspan x="37.9" y="0" style="fill:#6D6E71; font-family:'ArialMT', sans-serif; font-size:14; letter-spacing:33.7;">									</tspan><tspan x="408" y="0" style="fill:#6D6E71; font-family:'ArialMT', sans-serif; font-size:14;">     X.XX</tspan></text>
	<g id="Your_total">
		<rect x="401.5" y="560" style="fill:none;" width="69" height="27"/>
		<text transform="matrix(0.95 0 0 1 401.5 575.752)" style="fill:#58595B; font-family:'ArialMT', sans-serif; font-size:22;">x.xx</text>
		<rect x="21.5" y="561.5" style="fill:none;" width="377.5" height="25.5"/>
		<text transform="matrix(0.95 0 0 1 21.5 574.3877)" style="fill:#58595B; font-family:'ArialMT', sans-serif; font-size:18;">Your Total Electricity Charges</text>
	</g>
	<g id="Debt">
		<rect x="21.5" y="470" style="fill:none;" width="351" height="23.5"/>
		<text transform="matrix(0.95 0 0 1 21.5 485.752)" style="fill:#6D6E71; font-family:'Arial-BoldMT', sans-serif; font-size:22;">DEBT RETIREMENT CHARGE</text>
		<rect x="21.5" y="510" style="fill:none;" width="381" height="24"/>
		<text transform="matrix(0.95 0 0 1 21.5 520.0234)" style="fill:#6D6E71; font-family:'ArialMT', sans-serif; font-size:14;">Debt Retirement Charge exemption saved you $X.XX</text>
	</g>
	<g id="Figures">
		<rect x="402" y="292.5" style="fill:none;" width="69" height="27"/>
		<text transform="matrix(0.95 0 0 1 402 308.252)" style="fill:#58595B; font-family:'ArialMT', sans-serif; font-size:22;">x.xx</text>
		<rect x="402" y="397.5" style="fill:none;" width="69" height="27"/>
		<text transform="matrix(0.95 0 0 1 402 413.252)" style="fill:#58595B; font-family:'ArialMT', sans-serif; font-size:22;">x.xx</text>
		<rect x="402" y="432.5" style="fill:none;" width="69" height="27"/>
		<text transform="matrix(0.95 0 0 1 402 448.252)" style="fill:#58595B; font-family:'ArialMT', sans-serif; font-size:22;">x.xx</text>
		<rect x="395" y="474.5" style="fill:none;" width="69" height="27"/>
		<text transform="matrix(1.12 0 0 1 401.5 488.104)" style="fill:#58595B; font-family:'ArialMT', sans-serif; font-size:19;">0.00</text>
	</g>
	<g id="Regulatory">
		<path id="Back_2_" style="fill:#D9F4FA;" d="M317.5,456h-290c-6.6,0-12-5.4-12-12v-5c0-6.6,5.4-12,12-12h290c6.6,0,12,5.4,12,12v5
			C329.5,450.6,324.1,456,317.5,456z"/>
		<rect x="20.5" y="433.5" style="fill:none;" width="351" height="23.5"/>
		<text transform="matrix(0.95 0 0 1 20.5 449.252)" style="fill:#F26649; font-family:'Arial-BoldMT', sans-serif; font-size:22;">REGULATORY</text>
	</g>
	<g id="delibery">
		<path id="Back_1_" style="fill:#FFEECB;" d="M317.5,424h-290c-6.6,0-12-5.4-12-12v-5c0-6.6,5.4-12,12-12h290c6.6,0,12,5.4,12,12v5
			C329.5,418.6,324.1,424,317.5,424z"/>
		<rect x="20.5" y="401.5" style="fill:none;" width="351" height="23.5"/>
		<text transform="matrix(0.95 0 0 1 20.5 417.252)" style="fill:#F26649; font-family:'Arial-BoldMT', sans-serif; font-size:22;">DELIVERY</text>
	</g>
	<g id="Elect">
		<rect x="21.5" y="330" style="fill:none;" width="381" height="55"/>
		<text transform="matrix(0.95 0 0 1 21.5 341.4561)"><tspan x="0" y="0" style="fill:#6D6E71; font-family:'ArialMT', sans-serif; font-size:16;">135 kWh On-peak @ X.X ¢ /kWh</tspan><tspan x="0" y="19.2" style="fill:#6D6E71; font-family:'ArialMT', sans-serif; font-size:16;">127 kWh Mid-peak @ X.X ¢ /kWh</tspan><tspan x="0" y="38.4" style="fill:#6D6E71; font-family:'ArialMT', sans-serif; font-size:16;">488 kWh Off-peak @ X.X ¢ /kWh</tspan></text>
		<path id="Back" style="fill:#EEF7E2;" d="M319.5,321h-290c-6.6,0-12-5.4-12-12v-5c0-6.6,5.4-12,12-12h290c6.6,0,12,5.4,12,12v5
			C331.5,315.6,326.1,321,319.5,321z"/>
		<rect x="22.5" y="298.5" style="fill:none;" width="351" height="23.5"/>
		<text transform="matrix(0.95 0 0 1 22.5 314.252)" style="fill:#F26649; font-family:'Arial-BoldMT', sans-serif; font-size:22;">ELECTRICITY</text>
	</g>
	<rect x="21.5" y="258.5" style="fill:none;" width="456" height="26"/>
	<text transform="matrix(0.95 0 0 1 21.5 277.1157)"><tspan x="0" y="0" style="fill:#58595B; font-family:'Arial-BoldMT', sans-serif; font-size:26;">Your Electricity Charges</tspan><tspan x="308.2" y="0" style="fill:#58595B; font-family:'ArialMT', sans-serif; font-size:26;"> </tspan></text>
</g>
<g id="Account__x23_">
	<line style="fill:none;stroke:#939598;stroke-miterlimit:10;" x1="0.5" y1="228" x2="500.5" y2="228"/>
	<rect x="23.5" y="93" style="fill:none;" width="444" height="61"/>
	<text transform="matrix(1.1 0 0 1 23.5 108.752)"><tspan x="0" y="0" style="fill:#6D6E71; font-family:'ArialMT', sans-serif; font-size:22;">Account Number:</tspan><tspan x="0" y="26.4" style="fill:#6D6E71; font-family:'ArialMT', sans-serif; font-size:22;">000 000 000 000 0000 0</tspan></text>
	<rect x="20.5" y="162" style="fill:none;" width="444" height="61"/>
	<text transform="matrix(1.1 0 0 1 20.5 177.752)"><tspan x="0" y="0" style="fill:#6D6E71; font-family:'ArialMT', sans-serif; font-size:22;">Meter Number:</tspan><tspan x="0" y="26.4" style="fill:#6D6E71; font-family:'ArialMT', sans-serif; font-size:22;">000000</tspan></text>
	<line style="fill:none;stroke:#939598;stroke-miterlimit:10;" x1="0.5" y1="551" x2="500.5" y2="551"/>
</g>
<g id="Header">
	<rect x="0.5" y="0.5" style="fill:#F26649;" width="500" height="77"/>
	<rect x="19.5" y="25" style="fill:none;" width="436" height="34"/>
	<text transform="matrix(0.75 0 0 1 19.5 50.5731)" style="fill:#FFFFFF; font-family:'MyriadPro-Bold', sans-serif; font-size:36;">MONTHLY BILL STATEMENT</text>
</g>
</svg>
