<?xml version="1.0" encoding="utf-8"?>
<!-- Generator: Adobe Illustrator 17.1.0, SVG Export Plug-In . SVG Version: 6.00 Build 0)  -->
<!DOCTYPE svg PUBLIC "-//W3C//DTD SVG 1.0//EN" "http://www.w3.org/TR/2001/REC-SVG-20010904/DTD/svg10.dtd">
<svg version="1.0" xmlns="http://www.w3.org/2000/svg" xmlns:xlink="http://www.w3.org/1999/xlink" x="0px" y="0px"
	 viewBox="0 0 404 392" style="enable-background:new 0 0 404 392;" xml:space="preserve">
<g id="Layer_2">
	<rect style="fill:#FFFFFF;" width="404" height="392"/>
</g>
<g id="Layer_1">
	<g id="plus_1_">
		<path style="fill:#0194D3;" d="M151.1,185.5h-87c-16.6,0-30-13.4-30-30v-83c0-16.6,13.4-30,30-30h87c16.6,0,30,13.4,30,30v83
			C181.1,172.1,167.6,185.5,151.1,185.5z"/>
		<path id="plus" style="fill:#FFFFFF;" d="M150.8,102.1h-31.2V70.9c0-6.6-5.4-12-12-12c-6.6,0-12,5.4-12,12v31.2H64.4
			c-6.6,0-12,5.4-12,12c0,6.6,5.4,12,12,12h31.2v31.2c0,6.6,5.4,12,12,12c6.6,0,12-5.4,12-12v-31.2h31.2c6.6,0,12-5.4,12-12
			C162.8,107.4,157.4,102.1,150.8,102.1z"/>
	</g>
	<g id="multiple_1_">
		<path style="fill:#0194D3;" d="M149.4,363.2h-87c-16.6,0-30-13.4-30-30v-83c0-16.6,13.4-30,30-30h87c16.6,0,30,13.4,30,30v83
			C179.4,349.8,166,363.2,149.4,363.2z"/>
		<path id="multiple" style="fill:#FFFFFF;" d="M126.6,291.7l26.9-24.4c5.7-5.2,5.7-13.6,0-18.8c-5.7-5.2-15-5.2-20.7,0L105.9,273
			L79,248.6c-5.7-5.2-15-5.2-20.7,0c-5.7,5.2-5.7,13.6,0,18.8l26.9,24.4l-26.9,24.4c-5.7,5.2-5.7,13.6,0,18.8
			c2.9,2.6,6.6,3.9,10.4,3.9c3.7,0,7.5-1.3,10.3-3.9l26.9-24.4l26.9,24.4c2.9,2.6,6.6,3.9,10.3,3.9c3.7,0,7.5-1.3,10.3-3.9
			c5.7-5.2,5.7-13.6,0-18.8L126.6,291.7z"/>
	</g>
	<g id="minus_1_">
		<path style="fill:#0194D3;" d="M336.1,183.6h-87c-16.6,0-30-13.4-30-30v-83c0-16.6,13.4-30,30-30h87c16.6,0,30,13.4,30,30v83
			C366.1,170.1,352.6,183.6,336.1,183.6z"/>
		<path id="minus" style="fill:#FFFFFF;" d="M335.8,124.1h-86c-6.6,0-12.3-5.2-12.4-11.8c-0.1-6.7,5.3-12.2,12-12.2h86
			c6.6,0,12.3,5.2,12.4,11.8C347.9,118.6,342.5,124.1,335.8,124.1L335.8,124.1z M335.8,124.1"/>
	</g>
	<g id="equal">
		<path style="fill:#F26649;" d="M339.1,362.1h-87c-16.6,0-30-13.4-30-30v-83c0-16.6,13.4-30,30-30h87c16.6,0,30,13.4,30,30v83
			C369.1,348.7,355.6,362.1,339.1,362.1z"/>
		<g id="divide">
			<path style="display:none;fill:#FFFFFF;" d="M262.5,336.7c-3.3,0-6.6-1.3-9.2-3.8c-5.1-5.1-5.1-13.3,0-18.4l66.1-66.1
				c5.1-5.1,13.3-5.1,18.4,0c5.1,5.1,5.1,13.3,0,18.4l-66.1,66.1C269.2,335.4,265.8,336.7,262.5,336.7L262.5,336.7z M262.5,336.7"/>
			<path style="display:none;fill:#FFFFFF;" d="M275.1,261.3c0,8.8-7.2,16-16,16c-8.8,0-16-7.2-16-16c0-8.8,7.2-16,16-16
				C267.9,245.3,275.1,252.4,275.1,261.3L275.1,261.3z M275.1,261.3"/>
			<path style="display:none;fill:#FFFFFF;" d="M348,320c0,8.8-7.2,16-16,16c-8.8,0-16-7.2-16-16c0-8.8,7.2-16,16-16
				C340.9,304,348,311.2,348,320L348,320z M348,320"/>
		</g>
		<path id="minus_2_" style="fill:#FFFFFF;" d="M337.8,281.1h-86c-6.6,0-12.3-5.2-12.4-11.8c-0.1-6.7,5.3-12.2,12-12.2h86
			c6.6,0,12.3,5.2,12.4,11.8C349.9,275.6,344.5,281.1,337.8,281.1L337.8,281.1z M337.8,281.1"/>
		<path id="minus_3_" style="fill:#FFFFFF;" d="M338.8,326.1h-86c-6.6,0-12.3-5.2-12.4-11.8c-0.1-6.7,5.3-12.2,12-12.2h86
			c6.6,0,12.3,5.2,12.4,11.8C350.9,320.6,345.5,326.1,338.8,326.1L338.8,326.1z M338.8,326.1"/>
	</g>
</g>
</svg>
