<?xml version="1.0" encoding="utf-8"?>
<!-- Generator: Adobe Illustrator 17.1.0, SVG Export Plug-In . SVG Version: 6.00 Build 0)  -->
<!DOCTYPE svg PUBLIC "-//W3C//DTD SVG 1.1//EN" "http://www.w3.org/Graphics/SVG/1.1/DTD/svg11.dtd">
<svg version="1.1" xmlns="http://www.w3.org/2000/svg" xmlns:xlink="http://www.w3.org/1999/xlink" x="0px" y="0px"
	 viewBox="0 0 1232 526" style="enable-background:new 0 0 1232 526;" xml:space="preserve">
<g id="Layer_1">
	<path style="fill:#FEF0ED;" d="M1186,526H46c-25.4,0-46-20.6-46-46V46C0,20.6,20.6,0,46,0h1140c25.4,0,46,20.6,46,46v434
		C1232,505.4,1211.4,526,1186,526z"/>
</g>
<g id="header">
	<text id="XMLID_22_" transform="matrix(0.88 0 0 1 1018.7063 41.0002)"><tspan x="0" y="0" style="fill:#6D6E71; font-family:'Arial-BoldMT'; font-size:20;">WEEKENDS </tspan><tspan x="-0.2" y="24" style="fill:#6D6E71; font-family:'Arial-BoldMT'; font-size:20;">&amp; HOLID</tspan><tspan x="82" y="24" style="fill:#6D6E71; font-family:'Arial-BoldMT'; font-size:20; letter-spacing:-1.1;">A</tspan><tspan x="94.6" y="24" style="fill:#6D6E71; font-family:'Arial-BoldMT'; font-size:20;">YS</tspan></text>
	
		<text id="XMLID_80_" transform="matrix(0.88 0 0 1 614.1511 54.0002)" style="fill:#6D6E71; font-family:'Arial-BoldMT'; font-size:20;">WEEKDAYS</text>
	<path style="fill:none;stroke:#F26649;stroke-width:3;stroke-miterlimit:10;" d="M724,45h68c0,0,14,0,14,16"/>
	<path style="fill:none;stroke:#F26649;stroke-width:3;stroke-miterlimit:10;" d="M1130,45h30.7c0,0,6.3,0,6.3,16"/>
	<path style="fill:none;stroke:#F26649;stroke-width:3;stroke-miterlimit:10;" d="M1011,45h-30.7c0,0-6.3,0-6.3,16"/>
	<path style="fill:none;stroke:#F26649;stroke-width:3;stroke-miterlimit:10;" d="M604,45h-68c0,0-14,0-14,16"/>
</g>
<g id="inf1">
	<path style="fill:#8DC63F;" d="M601.8,232.6c5-11.4,7.9-24.1,7.9-37.4c0-49.9-39.2-90.3-87.5-90.3c-39.3,0-72.6,26.8-83.7,63.6
		L601.8,232.6z"/>
	<path style="fill:#FDBB30;" d="M438.3,168.1c-2.2,7.8-3.3,16.1-3.3,24.6c0,9.8,1.5,19.2,4.3,28l78-18.3l18.6,79.5
		c28.9-4.6,53.1-23.7,65.4-49.9L438.3,168.1z"/>
	<path style="fill:#F26649;stroke:#F26649;stroke-miterlimit:10;" d="M517.1,203.2L439.6,221c11,35.9,44.1,62,83.3,62
		c4.4,0,8.8-0.3,13.1-1L517.1,203.2z"/>
	<g id="text_5_">
		<text id="XMLID_158_" transform="matrix(1 0 0 1 495.0001 96.9999)"><tspan x="0" y="0" style="fill:#6D6E71; font-family:'ArialMT'; font-size:12;">MIDNIGHT</tspan><tspan x="52" y="0" style="fill:#6D6E71; font-family:'ArialMT'; font-size:12;">T</tspan></text>
		
			<text id="XMLID_157_" transform="matrix(1 0 0 1 497.9998 303.0001)" style="fill:#6D6E71; font-family:'ArialMT'; font-size:12;">NOON</text>
		<text id="XMLID_156_" transform="matrix(1 0 0 1 441.0001 194.0001)"><tspan x="0" y="0" style="fill:#FFFFFF; font-family:'Arial-BoldMT'; font-size:15; letter-spacing:-1;">P</tspan><tspan x="8.1" y="0" style="fill:#FFFFFF; font-family:'Arial-BoldMT'; font-size:15;">.M.</tspan></text>
		
			<text id="XMLID_155_" transform="matrix(1 0 0 1 576 196.0002)" style="fill:#FFFFFF; font-family:'Arial-BoldMT'; font-size:15;">A.M.</text>
		
			<text id="XMLID_154_" transform="matrix(1 0 0 1 563.9998 109.9999)" style="fill:#6D6E71; font-family:'ArialMT'; font-size:12;">1</text>
		
			<text id="XMLID_153_" transform="matrix(1 0 0 1 582.9999 123.0001)" style="fill:#6D6E71; font-family:'ArialMT'; font-size:12;">2</text>
		
			<text id="XMLID_152_" transform="matrix(1 0 0 1 599.0002 143.0002)" style="fill:#6D6E71; font-family:'ArialMT'; font-size:12;">3</text>
		
			<text id="XMLID_151_" transform="matrix(1 0 0 1 429.0002 237.0002)" style="fill:#6D6E71; font-family:'ArialMT'; font-size:12;">4</text>
		<text id="XMLID_150_" transform="matrix(1 0 0 1 613.0002 181)" style="fill:#6D6E71; font-family:'ArialMT'; font-size:12;">5</text>
		
			<text id="XMLID_149_" transform="matrix(0.9996 2.862000e-002 -2.862000e-002 0.9996 614.0001 205.9995)" style="fill:#6D6E71; font-family:'ArialMT'; font-size:12;">6</text>
		
			<text id="XMLID_148_" transform="matrix(1 0 0 1 610.9999 233.9998)" style="fill:#FDBB30; font-family:'Arial-BoldMT'; font-size:16;">7</text>
		<text id="XMLID_147_" transform="matrix(1 0 0 1 600.0001 255)" style="fill:#6D6E71; font-family:'ArialMT'; font-size:12;">8</text>
		
			<text id="XMLID_146_" transform="matrix(1 0 0 1 589.0002 271.9996)" style="fill:#6D6E71; font-family:'ArialMT'; font-size:12;">9</text>
		
			<text id="XMLID_145_" transform="matrix(1 0 0 1 568.0002 284.9995)" style="fill:#6D6E71; font-family:'ArialMT'; font-size:12;">10</text>
		<text id="XMLID_144_" transform="matrix(1 0 0 1 540 296.0003)"><tspan x="0" y="0" style="fill:#FDBB30; font-family:'Arial-BoldMT'; font-size:16;">1</tspan><tspan x="8" y="0" style="fill:#FDBB30; font-family:'Arial-BoldMT'; font-size:16;">1</tspan></text>
		<text id="XMLID_143_" transform="matrix(1 0 0 1 475.9998 108.0001)"><tspan x="0" y="0" style="fill:#6D6E71; font-family:'ArialMT'; font-size:12;">1</tspan><tspan x="5.8" y="0" style="fill:#6D6E71; font-family:'ArialMT'; font-size:12;">1</tspan></text>
		
			<text id="XMLID_142_" transform="matrix(1 0 0 1 455.9999 118.9998)" style="fill:#6D6E71; font-family:'ArialMT'; font-size:12;">10</text>
		
			<text id="XMLID_141_" transform="matrix(1 0 0 1 445.0001 132.9998)" style="fill:#6D6E71; font-family:'ArialMT'; font-size:12;">9</text>
		
			<text id="XMLID_140_" transform="matrix(1 0 0 1 433.9999 145.9999)" style="fill:#6D6E71; font-family:'ArialMT'; font-size:12;">8</text>
		
			<text id="XMLID_139_" transform="matrix(1 0 0 1 426.0001 163.9999)" style="fill:#FDBB30; font-family:'Arial-BoldMT'; font-size:16;">7</text>
		
			<text id="XMLID_138_" transform="matrix(1 0 0 1 421.9999 190.9999)" style="fill:#6D6E71; font-family:'ArialMT'; font-size:12;">6</text>
		
			<text id="XMLID_137_" transform="matrix(1 0 0 1 420.9998 216)" style="fill:#FDBB30; font-family:'Arial-BoldMT'; font-size:16;">5</text>
		
			<text id="XMLID_136_" transform="matrix(1 0 0 1 609.0002 162.0002)" style="fill:#6D6E71; font-family:'ArialMT'; font-size:12;">4</text>
		
			<text id="XMLID_135_" transform="matrix(1 0 0 1 439.0002 256.9998)" style="fill:#6D6E71; font-family:'ArialMT'; font-size:12;">3</text>
		<text id="XMLID_134_" transform="matrix(1 0 0 1 453 275)" style="fill:#6D6E71; font-family:'ArialMT'; font-size:12;">2</text>
		
			<text id="XMLID_133_" transform="matrix(1 0 0 1 476.0002 290.0002)" style="fill:#6D6E71; font-family:'ArialMT'; font-size:12;">1</text>
	</g>
</g>
<g id="inf3_1_">
	<g id="inf3">
		<path style="fill:#8DC63F;" d="M879.8,230.6c5-11.4,7.9-24.1,7.9-37.4c0-49.9-39.2-90.3-87.5-90.3c-39.3,0-72.6,26.8-83.7,63.6
			L879.8,230.6z"/>
		<path style="fill:#FDBB30;" d="M716.3,166.1c-2.2,7.8-3.3,16.1-3.3,24.6c0,9.8,1.5,19.2,4.3,28l78-18.3l18.6,79.5
			c28.9-4.6,53.1-23.7,65.4-49.9L716.3,166.1z"/>
		<path style="fill:#F26649;stroke:#F26649;stroke-miterlimit:10;" d="M795.1,201.2L717.6,219c11,35.9,44.1,62,83.3,62
			c4.4,0,8.8-0.3,13.1-1L795.1,201.2z"/>
		<g id="text_1_">
			<text id="XMLID_27_" transform="matrix(1 0 0 1 773.0001 94.9999)"><tspan x="0" y="0" style="fill:#6D6E71; font-family:'ArialMT'; font-size:12;">MIDNIGHT</tspan><tspan x="52" y="0" style="fill:#6D6E71; font-family:'ArialMT'; font-size:12;"></tspan></text>
			
				<text id="XMLID_26_" transform="matrix(1 0 0 1 775.9998 301.0001)" style="fill:#6D6E71; font-family:'ArialMT'; font-size:12;">NOON</text>
			<text id="XMLID_25_" transform="matrix(1 0 0 1 719.0001 192.0001)"><tspan x="0" y="0" style="fill:#FFFFFF; font-family:'Arial-BoldMT'; font-size:15; letter-spacing:-1;">P</tspan><tspan x="8.1" y="0" style="fill:#FFFFFF; font-family:'Arial-BoldMT'; font-size:15;">.M.</tspan></text>
			
				<text id="XMLID_24_" transform="matrix(1 0 0 1 854 194.0002)" style="fill:#FFFFFF; font-family:'Arial-BoldMT'; font-size:15;">A.M.</text>
			
				<text id="XMLID_23_" transform="matrix(1 0 0 1 841.9998 107.9999)" style="fill:#6D6E71; font-family:'ArialMT'; font-size:12;">1</text>
			
				<text id="XMLID_21_" transform="matrix(1 0 0 1 860.9999 121.0001)" style="fill:#6D6E71; font-family:'ArialMT'; font-size:12;">2</text>
			
				<text id="XMLID_20_" transform="matrix(1 0 0 1 877.0002 141.0002)" style="fill:#6D6E71; font-family:'ArialMT'; font-size:12;">3</text>
			
				<text id="XMLID_19_" transform="matrix(1 0 0 1 707.0002 235.0002)" style="fill:#6D6E71; font-family:'ArialMT'; font-size:12;">4</text>
			<text id="XMLID_18_" transform="matrix(1 0 0 1 891.0002 179)" style="fill:#6D6E71; font-family:'ArialMT'; font-size:12;">5</text>
			
				<text id="XMLID_17_" transform="matrix(0.9996 2.862000e-002 -2.862000e-002 0.9996 892.0001 203.9995)" style="fill:#6D6E71; font-family:'ArialMT'; font-size:12;">6</text>
			
				<text id="XMLID_16_" transform="matrix(1 0 0 1 888.9999 231.9998)" style="fill:#FDBB30; font-family:'Arial-BoldMT'; font-size:16;">7</text>
			<text id="XMLID_15_" transform="matrix(1 0 0 1 878.0001 253)" style="fill:#6D6E71; font-family:'ArialMT'; font-size:12;">8</text>
			
				<text id="XMLID_14_" transform="matrix(1 0 0 1 867.0002 269.9996)" style="fill:#6D6E71; font-family:'ArialMT'; font-size:12;">9</text>
			
				<text id="XMLID_13_" transform="matrix(1 0 0 1 846.0002 282.9995)" style="fill:#6D6E71; font-family:'ArialMT'; font-size:12;">10</text>
			<text id="XMLID_12_" transform="matrix(1 0 0 1 818 294.0003)"><tspan x="0" y="0" style="fill:#FDBB30; font-family:'Arial-BoldMT'; font-size:16;">1</tspan><tspan x="8" y="0" style="fill:#FDBB30; font-family:'Arial-BoldMT'; font-size:16;">1</tspan></text>
			<text id="XMLID_11_" transform="matrix(1 0 0 1 753.9998 106.0001)"><tspan x="0" y="0" style="fill:#6D6E71; font-family:'ArialMT'; font-size:12;">1</tspan><tspan x="5.8" y="0" style="fill:#6D6E71; font-family:'ArialMT'; font-size:12;">1</tspan></text>
			
				<text id="XMLID_10_" transform="matrix(1 0 0 1 733.9999 116.9998)" style="fill:#6D6E71; font-family:'ArialMT'; font-size:12;">10</text>
			<text id="XMLID_9_" transform="matrix(1 0 0 1 723.0001 130.9998)" style="fill:#6D6E71; font-family:'ArialMT'; font-size:12;">9</text>
			<text id="XMLID_8_" transform="matrix(1 0 0 1 711.9999 143.9999)" style="fill:#6D6E71; font-family:'ArialMT'; font-size:12;">8</text>
			
				<text id="XMLID_7_" transform="matrix(1 0 0 1 704.0001 161.9999)" style="fill:#FDBB30; font-family:'Arial-BoldMT'; font-size:16;">7</text>
			<text id="XMLID_6_" transform="matrix(1 0 0 1 699.9999 188.9999)" style="fill:#6D6E71; font-family:'ArialMT'; font-size:12;">6</text>
			<text id="XMLID_5_" transform="matrix(1 0 0 1 698.9998 214)" style="fill:#FDBB30; font-family:'Arial-BoldMT'; font-size:16;">5</text>
			<text id="XMLID_4_" transform="matrix(1 0 0 1 887.0002 160.0002)" style="fill:#6D6E71; font-family:'ArialMT'; font-size:12;">4</text>
			<text id="XMLID_3_" transform="matrix(1 0 0 1 717.0002 254.9998)" style="fill:#6D6E71; font-family:'ArialMT'; font-size:12;">3</text>
			<text id="XMLID_2_" transform="matrix(1 0 0 1 731 273)" style="fill:#6D6E71; font-family:'ArialMT'; font-size:12;">2</text>
			<text id="XMLID_1_" transform="matrix(1 0 0 1 754.0002 288.0002)" style="fill:#6D6E71; font-family:'ArialMT'; font-size:12;">1</text>
		</g>
	</g>
</g>
<g id="inf3_2_">
	<g id="inf2_1_">
		<path style="fill:#8DC63F;" d="M1150.8,230.6c5-11.4,7.9-24.1,7.9-37.4c0-49.9-39.2-90.3-87.5-90.3c-39.3,0-72.6,26.8-83.7,63.6
			L1150.8,230.6z"/>
		<path style="fill:#8DC63F;" d="M987.3,166.1c-2.2,7.8-3.3,16.1-3.3,24.6c0,9.8,1.5,19.2,4.3,28l78-18.3l18.6,79.5
			c28.9-4.6,53.1-23.7,65.4-49.9L987.3,166.1z"/>
		<path style="fill:#8DC63F;stroke:#8DC63F;stroke-miterlimit:10;" d="M1066.1,201.2L988.6,219c11,35.9,44.1,62,83.3,62
			c4.4,0,8.8-0.3,13.1-1L1066.1,201.2z"/>
		<g id="text_3_">
			<text id="XMLID_79_" transform="matrix(1 0 0 1 1044 94.9999)"><tspan x="0" y="0" style="fill:#6D6E71; font-family:'ArialMT'; font-size:12;">MIDNIGHT</tspan><tspan x="52" y="0" style="fill:#6D6E71; font-family:'ArialMT'; font-size:12;"></tspan></text>
			
				<text id="XMLID_78_" transform="matrix(1 0 0 1 1046.9998 301.0001)" style="fill:#6D6E71; font-family:'ArialMT'; font-size:12;">NOON</text>
			<text id="XMLID_77_" transform="matrix(1 0 0 1 990.0001 192.0001)"><tspan x="0" y="0" style="fill:#FFFFFF; font-family:'Arial-BoldMT'; font-size:15; letter-spacing:-1;">P</tspan><tspan x="8.1" y="0" style="fill:#FFFFFF; font-family:'Arial-BoldMT'; font-size:15;">.M.</tspan></text>
			
				<text id="XMLID_76_" transform="matrix(1 0 0 1 1125 194.0002)" style="fill:#FFFFFF; font-family:'Arial-BoldMT'; font-size:15;">A.M.</text>
			
				<text id="XMLID_75_" transform="matrix(1 0 0 1 1112.9998 107.9999)" style="fill:#6D6E71; font-family:'ArialMT'; font-size:12;">1</text>
			
				<text id="XMLID_74_" transform="matrix(1 0 0 1 1131.9999 121.0001)" style="fill:#6D6E71; font-family:'ArialMT'; font-size:12;">2</text>
			
				<text id="XMLID_73_" transform="matrix(1 0 0 1 1148.0002 141.0002)" style="fill:#6D6E71; font-family:'ArialMT'; font-size:12;">3</text>
			
				<text id="XMLID_72_" transform="matrix(1 0 0 1 978.0002 235.0002)" style="fill:#6D6E71; font-family:'ArialMT'; font-size:12;">4</text>
			<text id="XMLID_71_" transform="matrix(1 0 0 1 1162.0002 179)" style="fill:#6D6E71; font-family:'ArialMT'; font-size:12;">5</text>
			
				<text id="XMLID_70_" transform="matrix(0.9996 2.862000e-002 -2.862000e-002 0.9996 1163.0001 203.9995)" style="fill:#6D6E71; font-family:'ArialMT'; font-size:12;">6</text>
			
				<text id="XMLID_69_" transform="matrix(1 0 0 1 1160 231.9998)" style="fill:#FDBB30; font-family:'Arial-BoldMT'; font-size:16;">7</text>
			<text id="XMLID_68_" transform="matrix(1 0 0 1 1149 253)" style="fill:#6D6E71; font-family:'ArialMT'; font-size:12;">8</text>
			
				<text id="XMLID_67_" transform="matrix(1 0 0 1 1138.0002 269.9996)" style="fill:#6D6E71; font-family:'ArialMT'; font-size:12;">9</text>
			
				<text id="XMLID_66_" transform="matrix(1 0 0 1 1117.0002 282.9995)" style="fill:#6D6E71; font-family:'ArialMT'; font-size:12;">10</text>
			<text id="XMLID_65_" transform="matrix(1 0 0 1 1089 294.0003)"><tspan x="0" y="0" style="fill:#FDBB30; font-family:'Arial-BoldMT'; font-size:16;">1</tspan><tspan x="8" y="0" style="fill:#FDBB30; font-family:'Arial-BoldMT'; font-size:16;">1</tspan></text>
			<text id="XMLID_64_" transform="matrix(1 0 0 1 1024.9998 106.0001)"><tspan x="0" y="0" style="fill:#6D6E71; font-family:'ArialMT'; font-size:12;">1</tspan><tspan x="5.8" y="0" style="fill:#6D6E71; font-family:'ArialMT'; font-size:12;">1</tspan></text>
			
				<text id="XMLID_63_" transform="matrix(1 0 0 1 1004.9999 116.9998)" style="fill:#6D6E71; font-family:'ArialMT'; font-size:12;">10</text>
			
				<text id="XMLID_62_" transform="matrix(1 0 0 1 994.0001 130.9998)" style="fill:#6D6E71; font-family:'ArialMT'; font-size:12;">9</text>
			
				<text id="XMLID_61_" transform="matrix(1 0 0 1 982.9999 143.9999)" style="fill:#6D6E71; font-family:'ArialMT'; font-size:12;">8</text>
			
				<text id="XMLID_60_" transform="matrix(1 0 0 1 975.0001 161.9999)" style="fill:#FDBB30; font-family:'Arial-BoldMT'; font-size:16;">7</text>
			
				<text id="XMLID_59_" transform="matrix(1 0 0 1 970.9999 188.9999)" style="fill:#6D6E71; font-family:'ArialMT'; font-size:12;">6</text>
			
				<text id="XMLID_58_" transform="matrix(1 0 0 1 969.9998 214)" style="fill:#FDBB30; font-family:'Arial-BoldMT'; font-size:16;">5</text>
			
				<text id="XMLID_57_" transform="matrix(1 0 0 1 1158.0002 160.0002)" style="fill:#6D6E71; font-family:'ArialMT'; font-size:12;">4</text>
			
				<text id="XMLID_56_" transform="matrix(1 0 0 1 988.0002 254.9998)" style="fill:#6D6E71; font-family:'ArialMT'; font-size:12;">3</text>
			<text id="XMLID_55_" transform="matrix(1 0 0 1 1002 273)" style="fill:#6D6E71; font-family:'ArialMT'; font-size:12;">2</text>
			
				<text id="XMLID_54_" transform="matrix(1 0 0 1 1025.0002 288.0002)" style="fill:#6D6E71; font-family:'ArialMT'; font-size:12;">1</text>
		</g>
	</g>
</g>
<g id="left">
	<path style="fill:#FFFFFF;" d="M296,425H90c-21,0-38-17-38-38V117c0-21,17-38,38-38h206c21,0,38,17,38,38v270
		C334,408,317,425,296,425z"/>
	<rect x="52" y="42" style="fill:none;" width="244" height="29"/>
	<text transform="matrix(0.88 0 0 1 105.0522 56.3198)" style="fill:#F26649; font-family:'Arial-BoldMT'; font-size:20;">PRICE PERIODS</text>
	<rect x="112.5" y="114" style="fill:none;" width="203" height="67"/>
	<text transform="matrix(0.88 0 0 1 112.5 128.3198)" style="fill:#8DC63F; font-family:'Arial-BoldMT'; font-size:20;">OFF-PEAK:</text>
	<text transform="matrix(0.95 0 0 1 112.5 152.3198)" style="fill:#6D6E71; font-family:'ArialMT'; font-size:20;">Evenings, weekends</text>
	<text transform="matrix(0.95 0 0 1 112.5 176.3198)" style="fill:#6D6E71; font-family:'ArialMT'; font-size:20;">and holidays</text>
	<rect x="36.5" y="114" style="fill:none;" width="67" height="15"/>
	<text transform="matrix(0.88 0 0 1 90.79 128.3198)" style="fill:#8DC63F; font-family:'Arial-BoldMT'; font-size:20;">C</text>
	<rect x="36" y="200.5" style="fill:none;" width="67" height="15"/>
	<text transform="matrix(0.88 0 0 1 77.5796 214.8198)" style="fill:#FDBB30; font-family:'Arial-BoldMT'; font-size:20;">CC</text>
	<rect x="36" y="312.5" style="fill:none;" width="67" height="15"/>
	<text transform="matrix(0.88 0 0 1 64.8696 326.8198)" style="fill:#F26649; font-family:'Arial-BoldMT'; font-size:20;">CCC</text>
	<rect x="113" y="202" style="fill:none;" width="203" height="90"/>
	<text transform="matrix(0.88 0 0 1 113 216.3198)" style="fill:#FDBB30; font-family:'Arial-BoldMT'; font-size:20;">MID-PEAK:</text>
	<text transform="matrix(0.95 0 0 1 113 240.3198)" style="fill:#6D6E71; font-family:'ArialMT'; font-size:20;">Daytime, but not the </text>
	<text transform="matrix(0.95 0 0 1 113 264.3198)" style="fill:#6D6E71; font-family:'ArialMT'; font-size:20;">highest-use periods of </text>
	<text transform="matrix(0.95 0 0 1 113 288.3198)" style="fill:#6D6E71; font-family:'ArialMT'; font-size:20;">the day</text>
	<rect x="439" y="329" style="fill:none;" width="203" height="42"/>
	<text transform="matrix(0.88 0 0 1 439 343.3198)" style="fill:#6D6E71; font-family:'Arial-BoldMT'; font-size:20;">MID-PEAK:</text>
	<text transform="matrix(0.95 0 0 1 439 367.3198)" style="fill:#6D6E71; font-family:'ArialMT'; font-size:20;">May 1 - Oct 31</text>
	<rect x="743.5" y="331" style="fill:none;" width="203" height="42"/>
	<text transform="matrix(0.88 0 0 1 743.5 345.3198)" style="fill:#6D6E71; font-family:'Arial-BoldMT'; font-size:20;">WINTER:</text>
	<text transform="matrix(0.95 0 0 1 743.5 369.3198)" style="fill:#6D6E71; font-family:'ArialMT'; font-size:20;">Nov 1 -</text>
	
		<text transform="matrix(0.95 0 0 1 804.7397 369.3198)" style="fill:#6D6E71; font-family:'ArialMT'; font-size:20; letter-spacing:-1.1;"> </text>
	<text transform="matrix(0.95 0 0 1 808.9702 369.3198)" style="fill:#6D6E71; font-family:'ArialMT'; font-size:20;">Apr 31</text>
	<rect x="695.5" y="386" style="fill:none;" width="263.5" height="129"/>
	<text transform="matrix(0.95 0 0 1 695.5 398.8877)"><tspan x="0" y="0" style="fill:#6D6E71; font-family:'ArialMT'; font-size:18;">Less daylight means electricity</tspan><tspan x="0" y="21.6" style="fill:#6D6E71; font-family:'ArialMT'; font-size:18;">use peaks twice: once in the</tspan><tspan x="0" y="43.2" style="fill:#6D6E71; font-family:'ArialMT'; font-size:18;">morning when people wake up</tspan><tspan x="0" y="64.8" style="fill:#6D6E71; font-family:'ArialMT'; font-size:18;">and turn on their lights and</tspan><tspan x="0" y="86.4" style="fill:#6D6E71; font-family:'ArialMT'; font-size:18;">appliances, and again when</tspan><tspan x="0" y="108" style="fill:#6D6E71; font-family:'ArialMT'; font-size:18;">people get home from work. </tspan></text>
	<rect x="392.5" y="388.5" style="fill:none;" width="216.5" height="129"/>
	<text transform="matrix(0.95 0 0 1 392.5 401.3877)"><tspan x="0" y="0" style="fill:#6D6E71; font-family:'ArialMT'; font-size:18;">Electricity use peaks</tspan><tspan x="0" y="21.6" style="fill:#6D6E71; font-family:'ArialMT'; font-size:18;">during the hottest part of</tspan><tspan x="0" y="43.2" style="fill:#6D6E71; font-family:'ArialMT'; font-size:18;">the afternoon, when air</tspan><tspan x="0" y="64.8" style="fill:#6D6E71; font-family:'ArialMT'; font-size:18;">conditioners are running</tspan><tspan x="0" y="86.4" style="fill:#6D6E71; font-family:'ArialMT'; font-size:18;">on high. </tspan></text>
	<rect x="112.5" y="314" style="fill:none;" width="203" height="67"/>
	<text transform="matrix(0.88 0 0 1 112.5 328.3198)" style="fill:#F26649; font-family:'Arial-BoldMT'; font-size:20;">OFF-PEAK:</text>
	<text transform="matrix(0.95 0 0 1 112.5 352.3198)" style="fill:#6D6E71; font-family:'ArialMT'; font-size:20;">The high-denabd hours </text>
	<text transform="matrix(0.95 0 0 1 112.5 376.3198)" style="fill:#6D6E71; font-family:'ArialMT'; font-size:20;">during the day</text>
	<line style="fill:none;stroke:#8DC63F;stroke-miterlimit:10;" x1="97" y1="111" x2="97" y2="131"/>
	<line style="fill:none;stroke:#FDBB30;stroke-miterlimit:10;" x1="95" y1="197" x2="95" y2="218"/>
	<line style="fill:none;stroke:#FDBB30;stroke-miterlimit:10;" x1="84" y1="197" x2="84" y2="218"/>
	<line style="fill:none;stroke:#F26649;stroke-miterlimit:10;" x1="94" y1="309" x2="94" y2="330"/>
	<line style="fill:none;stroke:#F26649;stroke-miterlimit:10;" x1="84" y1="309" x2="84" y2="330"/>
	<line style="fill:none;stroke:#F26649;stroke-miterlimit:10;" x1="71" y1="309" x2="71" y2="330"/>
</g>
<g id="Layer_7">
	<line style="fill:#FFFFFF;stroke:#FFFFFF;stroke-miterlimit:10;" x1="652" y1="338" x2="652" y2="510"/>
	<g>
		<g>
			<path style="fill:#404040;" d="M429.7,347h-5.3c-0.7,0-1.2,0.5-1.2,1.2c0,0.7,0.5,1.3,1.2,1.3h5.3c0.7,0,1.2-0.6,1.2-1.3
				C431,347.5,430.4,347,429.7,347z"/>
			<path style="fill:#404040;" d="M421.4,339.8l3.8-3.8c0.5-0.5,0.5-1.2,0-1.7c-0.5-0.5-1.2-0.5-1.7,0l-3.8,3.8
				c-0.5,0.5-0.5,1.2,0,1.7C420.1,340.3,421,340.3,421.4,339.8z"/>
			<path style="fill:#404040;" d="M421.4,356.7c-0.5-0.5-1.3-0.5-1.7,0c-0.5,0.4-0.5,1.3,0,1.7l3.8,3.8c0.4,0.5,1.4,0.5,1.7,0
				c0.5-0.4,0.5-1.2,0-1.7L421.4,356.7z"/>
			<path style="fill:#404040;" d="M411.2,336.4c0.7,0,1.3-0.5,1.3-1.2v-5.4c0-0.7-0.6-1.2-1.3-1.2s-1.2,0.5-1.2,1.2v5.4
				C410,335.8,410.5,336.4,411.2,336.4z"/>
			<path style="fill:#404040;" d="M411.2,360.1c-0.7,0-1.2,0.5-1.2,1.2v5.4c0,0.6,0.5,1.2,1.2,1.2s1.3-0.6,1.3-1.3v-5.3
				C412.5,360.7,411.9,360.1,411.2,360.1z"/>
			<path style="fill:#404040;" d="M418,341.5c-1.9-1.9-4.1-2.8-6.8-2.8c-2.6,0-4.9,0.9-6.8,2.8c-1.9,1.9-2.8,4.1-2.8,6.8
				s0.9,4.9,2.8,6.8c1.9,1.9,4.1,2.8,6.8,2.8c2.6,0,4.9-0.9,6.8-2.8c1.9-1.9,2.8-4.1,2.8-6.8S419.9,343.3,418,341.5z M416.3,353.3
				c-1.4,1.4-3.1,2.1-5,2.1c-1.9,0-3.6-0.7-5-2.1c-1.4-1.4-2.1-3.1-2.1-5c0-1.9,0.7-3.6,2.1-5c1.4-1.4,3.1-2.1,5-2.1
				c2,0,3.6,0.7,5,2.1c1.4,1.4,2.1,3.1,2.1,5C418.4,350.2,417.7,351.9,416.3,353.3z"/>
			<path style="fill:#404040;" d="M401.1,339.8c0.2,0.2,0.5,0.4,0.9,0.4c0.3,0,0.6-0.1,0.9-0.4c0.4-0.5,0.4-1.3,0-1.7l-3.8-3.8
				c-0.4-0.4-1.3-0.4-1.7,0c-0.5,0.5-0.5,1.3,0,1.7L401.1,339.8z"/>
			<path style="fill:#404040;" d="M401.1,356.7l-3.8,3.8c-0.5,0.5-0.5,1.3,0,1.8c0.5,0.5,1.3,0.5,1.7,0l3.8-3.8
				c0.5-0.5,0.4-1.3,0-1.7C402.4,356.1,401.6,356.1,401.1,356.7z"/>
			<path style="fill:#404040;" d="M399.4,348.2c0-0.7-0.5-1.2-1.2-1.2h-5.4c-0.7,0-1.2,0.5-1.2,1.2c0,0.7,0.5,1.3,1.2,1.3h5.4
				C398.8,349.5,399.4,348.9,399.4,348.2z"/>
		</g>
	</g>
	<path style="fill:#404040;" d="M729,355.2c-0.1-0.4-0.6-0.7-1-0.6l-5.5,1.5l-3.9-2.2l6.1-2.2c0.3-0.1,0.5-0.4,0.5-0.7
		c0-0.3-0.2-0.6-0.5-0.7l-6.1-2.2l3.9-2.2l5.5,1.5c0.1,0,0.1,0,0.2,0c0.3,0,0.7-0.2,0.8-0.6c0.1-0.4-0.1-0.9-0.6-1l-4-1.1l3.6-2.1
		c0.4-0.2,0.5-0.7,0.3-1.1c-0.2-0.4-0.7-0.5-1.1-0.3l-3.6,2.1l1.1-4c0.1-0.4-0.1-0.9-0.6-1c-0.4-0.1-0.9,0.1-1,0.6l-1.5,5.5l-4,2.3
		l1.2-6.5c0.1-0.3-0.1-0.7-0.4-0.8c-0.3-0.2-0.6-0.1-0.9,0.1l-5,4.2v-4.5l4-4c0.3-0.3,0.3-0.8,0-1.1c-0.3-0.3-0.8-0.3-1.1,0
		l-2.9,2.9v-4.2c0-0.4-0.4-0.8-0.8-0.8c-0.4,0-0.8,0.4-0.8,0.8v4.2l-2.9-2.9c-0.3-0.3-0.8-0.3-1.1,0c-0.3,0.3-0.3,0.8,0,1.1l4,4v4.6
		l-5-4.2c-0.3-0.2-0.6-0.2-0.9-0.1c-0.3,0.2-0.4,0.5-0.4,0.8l1.2,6.5l-4-2.3l-1.5-5.5c-0.1-0.4-0.5-0.7-1-0.6
		c-0.4,0.1-0.7,0.5-0.6,1l1.1,3.9l-3.6-2.1c-0.4-0.2-0.9-0.1-1.1,0.3c-0.2,0.4-0.1,0.9,0.3,1.1l3.6,2.1l-3.9,1.1
		c-0.4,0.1-0.7,0.5-0.6,1c0.1,0.4,0.4,0.6,0.8,0.6c0.1,0,0.1,0,0.2,0l5.5-1.5l3.9,2.2l-6.1,2.2c-0.3,0.1-0.5,0.4-0.5,0.7
		c0,0.3,0.2,0.6,0.5,0.7l6.1,2.2l-3.9,2.2l-5.5-1.5c-0.4-0.1-0.9,0.1-1,0.6c-0.1,0.4,0.1,0.9,0.6,1l4,1.1l-3.6,2.1
		c-0.4,0.2-0.5,0.7-0.3,1.1c0.1,0.3,0.4,0.4,0.7,0.4c0.1,0,0.3,0,0.4-0.1l3.6-2.1l-1.1,4c-0.1,0.4,0.1,0.9,0.6,1c0.1,0,0.1,0,0.2,0
		c0.3,0,0.7-0.2,0.8-0.6l1.5-5.5l4-2.3l-1.2,6.5c-0.1,0.3,0.1,0.7,0.4,0.8c0.1,0.1,0.3,0.1,0.4,0.1c0.2,0,0.4-0.1,0.5-0.2l5-4.2v4.5
		l-4,4c-0.3,0.3-0.3,0.8,0,1.1c0.2,0.2,0.4,0.2,0.6,0.2s0.4-0.1,0.6-0.2l2.9-2.9v4.2c0,0.4,0.4,0.8,0.8,0.8c0.4,0,0.8-0.4,0.8-0.8
		V365l2.9,2.9c0.2,0.2,0.4,0.2,0.6,0.2s0.4-0.1,0.6-0.2c0.3-0.3,0.3-0.8,0-1.1l-4-4v-4.6l5,4.2c0.3,0.2,0.6,0.2,0.9,0.1
		c0.3-0.2,0.4-0.5,0.4-0.8l-1.2-6.5l4,2.3l1.5,5.5c0.1,0.4,0.4,0.6,0.8,0.6c0.1,0,0.1,0,0.2,0c0.4-0.1,0.7-0.5,0.6-1l-1.1-3.9
		l3.6,2.1c0.1,0.1,0.3,0.1,0.4,0.1c0.3,0,0.5-0.1,0.7-0.4c0.2-0.4,0.1-0.9-0.3-1.1l-3.6-2.1l4-1.1C728.9,356,729.1,355.6,729,355.2z
		 M722.2,350.9l-5.3,1.9l-3.3-1.9l3.3-1.9L722.2,350.9z M717,342l-1,5.6l-3.3,1.9v-3.9L717,342z M706.8,342l4.4,3.7v3.8l-3.3-1.9
		L706.8,342z M701.7,350.9l5.3-1.9l3.3,1.9l-3.3,1.9L701.7,350.9z M706.8,359.8l1-5.6l3.3-1.9v3.9L706.8,359.8z M717.1,359.8
		l-4.4-3.7v-3.8l3.3,1.9L717.1,359.8z"/>
</g>
</svg>
