<?xml version="1.0" encoding="utf-8"?>
<!-- Generator: Adobe Illustrator 17.1.0, SVG Export Plug-In . SVG Version: 6.00 Build 0)  -->
<!DOCTYPE svg PUBLIC "-//W3C//DTD SVG 1.0//EN" "http://www.w3.org/TR/2001/REC-SVG-20010904/DTD/svg10.dtd">
<svg version="1.0" xmlns="http://www.w3.org/2000/svg" xmlns:xlink="http://www.w3.org/1999/xlink" x="0px" y="0px"
	 viewBox="0 0 144 71" style="enable-background:new 0 0 144 71;" xml:space="preserve">
<g id="grids">
</g>
<g id="Layer_2">
	<rect x="44" y="9" style="fill:none;" width="109" height="63"/>
	<text transform="matrix(0.59 0 0 1 44 32.6274)"><tspan x="0" y="0" style="fill:#58595B; font-family:'Arial-BoldMT', sans-serif; font-size:33; text-transform: uppercase; letter-spacing:-1.7;">T</tspan><tspan x="17.7" y="0" style="fill:#58595B; font-family:'Arial-BoldMT', sans-serif; font-size:33; text-transform: uppercase;">ake</tspan><tspan x="0" y="31" style="fill:#58595B; font-family:'Arial-BoldMT', sans-serif; font-size:33; text-transform: uppercase;">charge</tspan></text>
	<path style="fill:#F26649;" d="M38,64L38,64c-1.1,0-2-1.1-2-2.5V50.5c0-1.4,0.9-2.5,2-2.5h0c1.1,0,2,1.1,2,2.5v11.1
		C40,62.9,39.1,64,38,64z"/>
	<path style="fill:#F26649;" d="M23.6,13.6L23.6,13.6c-1.2,0.6-1.6,2-0.9,3.1l5.7,9c0.7,1.1,2.2,1.5,3.4,0.9l0,0
		c1.2-0.6,1.5-2,0.8-3.1l-5.7-9C26.2,13.4,24.7,13,23.6,13.6z"/>
	<path style="fill:#F26649;" d="M32.1,47.1L32.1,47.1C31,46.4,29.7,46.8,29,48l-5,9.6c-0.6,1.2-0.3,2.7,0.8,3.4l0,0
		c1.1,0.7,2.4,0.3,3.1-0.9l5-9.6C33.6,49.3,33.2,47.8,32.1,47.1z"/>
	<circle style="display:none;fill:#F26649;" cx="37.5" cy="36.5" r="11.5"/>
	<path style="fill:#F26649;" d="M38,25L38,25c-1.1,0-2-1.1-2-2.5v-11c0-1.4,0.9-2.5,2-2.5h0c1.1,0,2,1.1,2,2.5v11
		C40,23.9,39.1,25,38,25z"/>
	<path style="fill:#F26649;" d="M26,36.8L26,36.8c0.2-1.3-0.8-2.4-2.1-2.4L13,34.1c-1.3,0-2.5,1-2.7,2.2l0,0
		c-0.1,1.3,0.8,2.3,2.2,2.4L23.3,39C24.6,39,25.8,38,26,36.8z"/>
	<path style="fill:#F26649;" d="M27.6,30.6L27.6,30.6c0.7-1.1,0.3-2.5-0.8-3.1l-9.5-5.2c-1.2-0.6-2.7-0.3-3.4,0.8l0,0
		c-0.7,1.1-0.3,2.4,0.9,3.1l9.5,5.2C25.4,32,26.9,31.6,27.6,30.6z"/>
	<path style="fill:#F26649;" d="M28.2,43L28.2,43c-0.7-1.1-2.1-1.4-3.2-0.7l-8.9,6.2c-1.1,0.8-1.5,2.3-0.8,3.4l0,0
		c0.6,1.1,2,1.4,3.1,0.6l8.9-6.2C28.4,45.6,28.8,44.1,28.2,43z"/>
</g>
</svg>
