<?xml version="1.0" encoding="utf-8"?>
<!-- Generator: Adobe Illustrator 17.1.0, SVG Export Plug-In . SVG Version: 6.00 Build 0)  -->
<!DOCTYPE svg PUBLIC "-//W3C//DTD SVG 1.1//EN" "http://www.w3.org/Graphics/SVG/1.1/DTD/svg11.dtd">
<svg version="1.1" xmlns="http://www.w3.org/2000/svg" xmlns:xlink="http://www.w3.org/1999/xlink" x="0px" y="0px"
	 viewBox="0 0 34 61" style="enable-background:new 0 0 34 61;" xml:space="preserve">
<g id="Layer_3" style="display:none;">
	<rect style="display:inline;fill:#FFFFFF;" width="34" height="61"/>
</g>
<g id="grids">
</g>
<g id="Layer_2">
	<path style="fill:#F26649;" d="M30,59L30,59c-1.1,0-2-1.1-2-2.5V45.5c0-1.4,0.9-2.5,2-2.5h0c1.1,0,2,1.1,2,2.5v11.1
		C32,57.9,31.1,59,30,59z"/>
	<path style="fill:#F26649;" d="M15.6,8.6L15.6,8.6c-1.2,0.6-1.6,2-0.9,3.1l5.7,9c0.7,1.1,2.2,1.5,3.4,0.9l0,0
		c1.2-0.6,1.5-2,0.8-3.1l-5.7-9C18.2,8.4,16.7,8,15.6,8.6z"/>
	<path style="fill:#F26649;" d="M24.1,42.1L24.1,42.1C23,41.4,21.7,41.8,21,43l-5,9.6c-0.6,1.2-0.3,2.7,0.8,3.4l0,0
		c1.1,0.7,2.4,0.3,3.1-0.9l5-9.6C25.6,44.3,25.2,42.8,24.1,42.1z"/>
	<circle style="display:none;fill:#F26649;" cx="29.5" cy="31.5" r="11.5"/>
	<path style="fill:#F26649;" d="M30,20L30,20c-1.1,0-2-1.1-2-2.5v-11C28,5.1,28.9,4,30,4h0c1.1,0,2,1.1,2,2.5v11
		C32,18.9,31.1,20,30,20z"/>
	<path style="fill:#F26649;" d="M18,31.8L18,31.8c0.2-1.3-0.8-2.4-2.1-2.4L5,29.1c-1.3,0-2.5,1-2.7,2.2l0,0
		c-0.1,1.3,0.8,2.3,2.2,2.4L15.3,34C16.6,34,17.8,33,18,31.8z"/>
	<path style="fill:#F26649;" d="M19.6,25.6L19.6,25.6c0.7-1.1,0.3-2.5-0.8-3.1l-9.5-5.2c-1.2-0.6-2.7-0.3-3.4,0.8l0,0
		c-0.7,1.1-0.3,2.4,0.9,3.1l9.5,5.2C17.4,27,18.9,26.6,19.6,25.6z"/>
	<path style="fill:#F26649;" d="M20.2,38L20.2,38c-0.7-1.1-2.1-1.4-3.2-0.7l-8.9,6.2c-1.1,0.8-1.5,2.3-0.8,3.4l0,0
		c0.6,1.1,2,1.4,3.1,0.6l8.9-6.2C20.4,40.6,20.8,39.1,20.2,38z"/>
</g>
</svg>
